<mxfile host="app.diagrams.net" modified="2023-04-14T09:15:01.234Z" agent="Mozilla/5.0 (Windows NT 10.0; Win64; x64) AppleWebKit/537.36 (KHTML, like Gecko) Chrome/112.0.0.0 Safari/537.36" etag="i-zsh8jT-Z6rjbptEVYE" version="21.1.7" type="device">
  <diagram name="PÃ¡gina-1" id="eXSjySryDVPpPtyooJVX">
    <mxGraphModel dx="2021" dy="664" grid="1" gridSize="10" guides="1" tooltips="1" connect="1" arrows="1" fold="1" page="1" pageScale="1" pageWidth="827" pageHeight="1169" math="0" shadow="0">
      <root>
        <mxCell id="0" />
        <mxCell id="1" parent="0" />
        <mxCell id="WGTfgYeD2Gj5JA-NKLP4-3" value="" style="shape=mxgraph.rack.hp.hp_proliant_bl685c_server_blade;html=1;labelPosition=right;align=left;spacingLeft=15;dashed=0;shadow=0;fillColor=#ffffff;" parent="1" vertex="1">
          <mxGeometry x="280" y="310" width="37" height="121" as="geometry" />
        </mxCell>
        <mxCell id="WGTfgYeD2Gj5JA-NKLP4-4" value="" style="shape=mxgraph.rack.hp.hp_proliant_bl685c_server_blade;html=1;labelPosition=right;align=left;spacingLeft=15;dashed=0;shadow=0;fillColor=#ffffff;" parent="1" vertex="1">
          <mxGeometry x="360" y="310" width="37" height="121" as="geometry" />
        </mxCell>
        <mxCell id="WGTfgYeD2Gj5JA-NKLP4-5" value="" style="shape=mxgraph.rack.hp.hp_proliant_bl685c_server_blade;html=1;labelPosition=right;align=left;spacingLeft=15;dashed=0;shadow=0;fillColor=#ffffff;" parent="1" vertex="1">
          <mxGeometry x="440" y="310" width="37" height="121" as="geometry" />
        </mxCell>
        <mxCell id="WGTfgYeD2Gj5JA-NKLP4-7" value="" style="shape=mxgraph.rack.cisco.cisco_nexus_3064_switch;html=1;labelPosition=right;align=left;spacingLeft=15;dashed=0;shadow=0;fillColor=#ffffff;" parent="1" vertex="1">
          <mxGeometry x="298" y="510" width="161" height="15" as="geometry" />
        </mxCell>
        <mxCell id="WGTfgYeD2Gj5JA-NKLP4-8" value="" style="points=[[0,0.64,0],[0.2,0.15,0],[0.4,0.01,0],[0.79,0.25,0],[1,0.65,0],[0.8,0.86,0],[0.41,1,0],[0.16,0.86,0]];verticalLabelPosition=bottom;sketch=0;html=1;verticalAlign=top;aspect=fixed;align=center;pointerEvents=1;shape=mxgraph.cisco19.cloud;fillColor=#186180;strokeColor=none;" parent="1" vertex="1">
          <mxGeometry x="297" y="630" width="180" height="108" as="geometry" />
        </mxCell>
        <mxCell id="WGTfgYeD2Gj5JA-NKLP4-9" value="Red Trevenque" style="text;html=1;align=center;verticalAlign=middle;resizable=0;points=[];autosize=1;strokeColor=none;fillColor=none;" parent="1" vertex="1">
          <mxGeometry x="330" y="669" width="110" height="30" as="geometry" />
        </mxCell>
        <mxCell id="WGTfgYeD2Gj5JA-NKLP4-10" value="" style="endArrow=none;html=1;rounded=0;entryX=0.944;entryY=1.004;entryDx=0;entryDy=0;entryPerimeter=0;exitX=0.919;exitY=0.087;exitDx=0;exitDy=0;exitPerimeter=0;strokeColor=#80FF00;" parent="1" source="WGTfgYeD2Gj5JA-NKLP4-7" target="WGTfgYeD2Gj5JA-NKLP4-5" edge="1">
          <mxGeometry width="50" height="50" relative="1" as="geometry">
            <mxPoint x="460" y="520" as="sourcePoint" />
            <mxPoint x="510" y="470" as="targetPoint" />
          </mxGeometry>
        </mxCell>
        <mxCell id="WGTfgYeD2Gj5JA-NKLP4-11" value="" style="endArrow=none;html=1;rounded=0;strokeColor=#FF0000;entryX=0.486;entryY=0.992;entryDx=0;entryDy=0;entryPerimeter=0;exitX=0.801;exitY=0.022;exitDx=0;exitDy=0;exitPerimeter=0;" parent="1" source="WGTfgYeD2Gj5JA-NKLP4-7" target="WGTfgYeD2Gj5JA-NKLP4-5" edge="1">
          <mxGeometry width="50" height="50" relative="1" as="geometry">
            <mxPoint x="430" y="510" as="sourcePoint" />
            <mxPoint x="510" y="470" as="targetPoint" />
          </mxGeometry>
        </mxCell>
        <mxCell id="WGTfgYeD2Gj5JA-NKLP4-12" value="" style="endArrow=none;html=1;rounded=0;strokeColor=#0000FF;entryX=0.054;entryY=0.992;entryDx=0;entryDy=0;entryPerimeter=0;" parent="1" target="WGTfgYeD2Gj5JA-NKLP4-5" edge="1">
          <mxGeometry width="50" height="50" relative="1" as="geometry">
            <mxPoint x="410" y="510" as="sourcePoint" />
            <mxPoint x="510" y="470" as="targetPoint" />
          </mxGeometry>
        </mxCell>
        <mxCell id="WGTfgYeD2Gj5JA-NKLP4-13" value="" style="endArrow=none;html=1;rounded=0;strokeColor=#FF0000;entryX=0.494;entryY=0.994;entryDx=0;entryDy=0;entryPerimeter=0;exitX=0.497;exitY=0.059;exitDx=0;exitDy=0;exitPerimeter=0;" parent="1" source="WGTfgYeD2Gj5JA-NKLP4-7" target="WGTfgYeD2Gj5JA-NKLP4-4" edge="1">
          <mxGeometry width="50" height="50" relative="1" as="geometry">
            <mxPoint x="380" y="500" as="sourcePoint" />
            <mxPoint x="378.66300000000007" y="430.99699999999996" as="targetPoint" />
          </mxGeometry>
        </mxCell>
        <mxCell id="WGTfgYeD2Gj5JA-NKLP4-14" value="" style="endArrow=none;html=1;rounded=0;entryX=0.944;entryY=1.004;entryDx=0;entryDy=0;entryPerimeter=0;exitX=0.6;exitY=0.004;exitDx=0;exitDy=0;exitPerimeter=0;strokeColor=#80FF00;" parent="1" source="WGTfgYeD2Gj5JA-NKLP4-7" edge="1">
          <mxGeometry width="50" height="50" relative="1" as="geometry">
            <mxPoint x="394.85400000000004" y="509.22" as="sourcePoint" />
            <mxPoint x="395" y="430" as="targetPoint" />
          </mxGeometry>
        </mxCell>
        <mxCell id="WGTfgYeD2Gj5JA-NKLP4-15" value="" style="endArrow=none;html=1;rounded=0;strokeColor=#0000FF;entryX=0.054;entryY=0.992;entryDx=0;entryDy=0;entryPerimeter=0;" parent="1" edge="1">
          <mxGeometry width="50" height="50" relative="1" as="geometry">
            <mxPoint x="362" y="511" as="sourcePoint" />
            <mxPoint x="362" y="431" as="targetPoint" />
          </mxGeometry>
        </mxCell>
        <mxCell id="WGTfgYeD2Gj5JA-NKLP4-16" value="" style="endArrow=none;html=1;rounded=0;entryX=0.261;entryY=0;entryDx=0;entryDy=0;entryPerimeter=0;exitX=0.919;exitY=0.087;exitDx=0;exitDy=0;exitPerimeter=0;strokeColor=#80FF00;" parent="1" target="WGTfgYeD2Gj5JA-NKLP4-7" edge="1">
          <mxGeometry width="50" height="50" relative="1" as="geometry">
            <mxPoint x="317" y="430" as="sourcePoint" />
            <mxPoint x="288" y="510" as="targetPoint" />
          </mxGeometry>
        </mxCell>
        <mxCell id="WGTfgYeD2Gj5JA-NKLP4-17" value="" style="endArrow=none;html=1;rounded=0;strokeColor=#FF0000;entryX=0.137;entryY=0;entryDx=0;entryDy=0;entryPerimeter=0;" parent="1" target="WGTfgYeD2Gj5JA-NKLP4-7" edge="1">
          <mxGeometry width="50" height="50" relative="1" as="geometry">
            <mxPoint x="300" y="430" as="sourcePoint" />
            <mxPoint x="269" y="509" as="targetPoint" />
          </mxGeometry>
        </mxCell>
        <mxCell id="WGTfgYeD2Gj5JA-NKLP4-18" value="" style="endArrow=none;html=1;rounded=0;strokeColor=#0000FF;entryX=0.012;entryY=0;entryDx=0;entryDy=0;entryPerimeter=0;" parent="1" target="WGTfgYeD2Gj5JA-NKLP4-7" edge="1">
          <mxGeometry width="50" height="50" relative="1" as="geometry">
            <mxPoint x="280" y="430" as="sourcePoint" />
            <mxPoint x="248" y="510" as="targetPoint" />
          </mxGeometry>
        </mxCell>
        <mxCell id="WGTfgYeD2Gj5JA-NKLP4-19" value="" style="endArrow=none;html=1;rounded=0;entryX=0.944;entryY=1.004;entryDx=0;entryDy=0;entryPerimeter=0;exitX=0.517;exitY=0.093;exitDx=0;exitDy=0;exitPerimeter=0;strokeColor=#80FF00;" parent="1" source="WGTfgYeD2Gj5JA-NKLP4-8" edge="1">
          <mxGeometry width="50" height="50" relative="1" as="geometry">
            <mxPoint x="393" y="605" as="sourcePoint" />
            <mxPoint x="393" y="525" as="targetPoint" />
          </mxGeometry>
        </mxCell>
        <mxCell id="WGTfgYeD2Gj5JA-NKLP4-20" value="" style="endArrow=none;html=1;rounded=0;strokeColor=#0000FF;entryX=0.054;entryY=0.992;entryDx=0;entryDy=0;entryPerimeter=0;exitX=0.35;exitY=0.093;exitDx=0;exitDy=0;exitPerimeter=0;" parent="1" source="WGTfgYeD2Gj5JA-NKLP4-8" edge="1">
          <mxGeometry width="50" height="50" relative="1" as="geometry">
            <mxPoint x="360" y="606" as="sourcePoint" />
            <mxPoint x="360" y="526" as="targetPoint" />
          </mxGeometry>
        </mxCell>
        <mxCell id="WGTfgYeD2Gj5JA-NKLP4-22" value="" style="whiteSpace=wrap;html=1;fillColor=#80FF00;strokeColor=#000000;" parent="1" vertex="1">
          <mxGeometry x="80" y="333" width="20" height="20" as="geometry" />
        </mxCell>
        <mxCell id="WGTfgYeD2Gj5JA-NKLP4-23" value="Management&lt;br&gt;Vlan 128&lt;br&gt;10.200.128.0/24" style="text;html=1;align=center;verticalAlign=middle;resizable=0;points=[];autosize=1;strokeColor=none;fillColor=none;" parent="1" vertex="1">
          <mxGeometry x="100" y="313" width="110" height="60" as="geometry" />
        </mxCell>
        <mxCell id="WGTfgYeD2Gj5JA-NKLP4-24" value="" style="whiteSpace=wrap;html=1;fillColor=#0000FF;" parent="1" vertex="1">
          <mxGeometry x="80" y="377" width="20" height="20" as="geometry" />
        </mxCell>
        <mxCell id="WGTfgYeD2Gj5JA-NKLP4-25" value="VM-Network&lt;br&gt;&lt;div&gt;Vlan 129&lt;/div&gt;10.200.129.0/24" style="text;html=1;align=center;verticalAlign=middle;resizable=0;points=[];autosize=1;strokeColor=none;fillColor=none;" parent="1" vertex="1">
          <mxGeometry x="100" y="357" width="110" height="60" as="geometry" />
        </mxCell>
        <mxCell id="WGTfgYeD2Gj5JA-NKLP4-26" value="" style="whiteSpace=wrap;html=1;fillColor=#ff0000;" parent="1" vertex="1">
          <mxGeometry x="80" y="419" width="20" height="20" as="geometry" />
        </mxCell>
        <mxCell id="WGTfgYeD2Gj5JA-NKLP4-27" value="Storage-Network&lt;br&gt;10.200.XXX.0/24" style="text;html=1;align=center;verticalAlign=middle;resizable=0;points=[];autosize=1;strokeColor=none;fillColor=none;" parent="1" vertex="1">
          <mxGeometry x="100" y="409" width="110" height="40" as="geometry" />
        </mxCell>
        <mxCell id="WGTfgYeD2Gj5JA-NKLP4-29" value="HarvesterNode01" style="text;html=1;align=center;verticalAlign=middle;resizable=0;points=[];autosize=1;strokeColor=none;fillColor=none;rotation=90;" parent="1" vertex="1">
          <mxGeometry x="270" y="355" width="120" height="30" as="geometry" />
        </mxCell>
        <mxCell id="WGTfgYeD2Gj5JA-NKLP4-30" value="HarvesterNode02" style="text;html=1;align=center;verticalAlign=middle;resizable=0;points=[];autosize=1;strokeColor=none;fillColor=none;rotation=90;" parent="1" vertex="1">
          <mxGeometry x="350" y="355.5" width="120" height="30" as="geometry" />
        </mxCell>
        <mxCell id="WGTfgYeD2Gj5JA-NKLP4-31" value="HarvesterNode03" style="text;html=1;align=center;verticalAlign=middle;resizable=0;points=[];autosize=1;strokeColor=none;fillColor=none;rotation=90;" parent="1" vertex="1">
          <mxGeometry x="430" y="355" width="120" height="30" as="geometry" />
        </mxCell>
        <mxCell id="WGTfgYeD2Gj5JA-NKLP4-32" value="&lt;font style=&quot;font-size: 10px;&quot;&gt;Rancher&lt;/font&gt;" style="ellipse;shape=cloud;whiteSpace=wrap;html=1;" parent="1" vertex="1">
          <mxGeometry x="530" y="664" width="59" height="40" as="geometry" />
        </mxCell>
        <mxCell id="WGTfgYeD2Gj5JA-NKLP4-33" value="" style="endArrow=none;html=1;rounded=0;entryX=0.077;entryY=0.621;entryDx=0;entryDy=0;entryPerimeter=0;strokeColor=#80FF00;" parent="1" target="WGTfgYeD2Gj5JA-NKLP4-32" edge="1">
          <mxGeometry width="50" height="50" relative="1" as="geometry">
            <mxPoint x="477" y="699" as="sourcePoint" />
            <mxPoint x="527" y="649" as="targetPoint" />
          </mxGeometry>
        </mxCell>
        <mxCell id="jXkw8GHfZyAqdBBLOCm2-1" value="Bonding de &lt;br&gt;4 interfaces" style="text;html=1;align=center;verticalAlign=middle;resizable=0;points=[];autosize=1;strokeColor=none;fillColor=none;" parent="1" vertex="1">
          <mxGeometry x="-30" y="367" width="90" height="40" as="geometry" />
        </mxCell>
        <mxCell id="jXkw8GHfZyAqdBBLOCm2-2" value="Bonding de &lt;br&gt;4 interfaces" style="text;html=1;align=center;verticalAlign=middle;resizable=0;points=[];autosize=1;strokeColor=none;fillColor=none;" parent="1" vertex="1">
          <mxGeometry x="-30" y="409" width="90" height="40" as="geometry" />
        </mxCell>
        <mxCell id="jXkw8GHfZyAqdBBLOCm2-3" value="1 interfaz" style="text;html=1;align=center;verticalAlign=middle;resizable=0;points=[];autosize=1;strokeColor=none;fillColor=none;" parent="1" vertex="1">
          <mxGeometry x="-20" y="328" width="70" height="30" as="geometry" />
        </mxCell>
        <mxCell id="fB4mLAsiRqIkTcmOm_zQ-2" value="Internet" style="image;aspect=fixed;perimeter=ellipsePerimeter;html=1;align=center;shadow=0;dashed=0;spacingTop=3;image=img/lib/active_directory/internet_cloud.svg;" parent="1" vertex="1">
          <mxGeometry x="95" y="660" width="120" height="75.6" as="geometry" />
        </mxCell>
        <mxCell id="fB4mLAsiRqIkTcmOm_zQ-3" value="" style="endArrow=none;html=1;rounded=0;entryX=0;entryY=0.64;entryDx=0;entryDy=0;entryPerimeter=0;strokeColor=#0000ff;exitX=1;exitY=0.5;exitDx=0;exitDy=0;" parent="1" source="fB4mLAsiRqIkTcmOm_zQ-2" target="WGTfgYeD2Gj5JA-NKLP4-8" edge="1">
          <mxGeometry width="50" height="50" relative="1" as="geometry">
            <mxPoint x="210" y="690" as="sourcePoint" />
            <mxPoint x="273" y="690" as="targetPoint" />
          </mxGeometry>
        </mxCell>
      </root>
    </mxGraphModel>
  </diagram>
</mxfile>
